# xmcd
#
# Track frame offsets: 
#        150
#        19918
#        34207
#        49033
#        62935
#        84044
#        101628
#        117031
#        129752
#        141663
#
# Disc length: 2056 seconds
#
# Revision: 0
# Processed by: cddbd v1.5.2PL0 Copyright (c) Steve Scherf et al.
# Submitted via: ExactAudioCopy v1.0b4
#
DISCID=8208060a
DTITLE=Charlie Sayles and The Blues Disciplies feat- Tony Fazio - Charli
DTITLE=e Sayles and The Blues Disciplies feat- Tony Fazio
DYEAR=2015
DGENRE=Blues
TTITLE0=Those Things Of Old
TTITLE1=Jesus Christ
TTITLE2=New Day Coming
TTITLE3=These Chains
TTITLE4=Vietnam
TTITLE5=Everybody's Got Something To Say
TTITLE6=Arelia
TTITLE7=I Don't Want To Die
TTITLE8=Laughin' And Grinnin'
TTITLE9=Greenpeace
EXTD=
EXTT0=
EXTT1=
EXTT2=
EXTT3=
EXTT4=
EXTT5=
EXTT6=
EXTT7=
EXTT8=
EXTT9=
PLAYORDER=
